<svg width="80" height="80" viewBox="0 0 80 80" fill="none" xmlns="http://www.w3.org/2000/svg">
<rect width="80" height="80" fill="#000008"/>
<path d="M46.6332 24.9834C47.0384 24.9834 47.4123 24.8172 47.6929 24.5263L49.8122 22.3135C50.0719 22.033 50.4459 21.8772 50.8302 21.8772H50.9134C51.3186 21.8772 51.6925 22.0538 51.9626 22.3551L53.7493 24.3808C54.0922 24.7652 54.5804 24.9834 55.0895 24.9834H59.8786C55.3182 18.9165 48.0669 15 39.9015 15C31.7361 15 24.4745 18.9165 19.9139 24.9834H46.6332Z" fill="white"/>
<path d="M49.1577 31.7255H53.5623L63.473 31.7151C64.1586 33.6682 64.6054 35.7459 64.7819 37.8859H46.2073C45.6982 37.8859 45.21 37.6678 44.8671 37.2834L43.0804 35.268C42.8101 34.9668 42.4361 34.7902 42.031 34.7902H41.948C41.574 34.7902 41.1999 34.946 40.9402 35.2265L38.8211 37.4392C38.5404 37.7301 38.1665 37.8963 37.7613 37.8963H15C15.1765 35.7459 15.6233 33.6786 16.3089 31.7359H40.4207C41.1688 31.7359 41.896 31.4035 42.3946 30.8425L43.9321 29.1076C44.2022 28.8064 44.5762 28.6298 44.9813 28.6298C45.3865 28.6298 45.7605 28.8064 46.0306 29.1076L47.8175 31.123C48.1602 31.5074 48.6486 31.7255 49.1577 31.7255Z" fill="white"/>
<path d="M29.8349 50.4041C29.5545 50.695 29.1804 50.8612 28.7754 50.8612L17.3894 50.8716C16.4441 48.9186 15.7584 46.8305 15.3429 44.6385H31.5387C32.297 44.6385 33.0242 44.3164 33.5229 43.7451L35.0605 42.0102C35.3202 41.7193 35.7045 41.5427 36.1097 41.5427C36.5149 41.5427 36.8888 41.7089 37.1589 42.0102L38.9456 44.0048C39.2885 44.3892 39.7767 44.6073 40.2858 44.6073H64.4601C64.0446 46.7993 63.3587 48.8874 62.4134 50.8404H37.2315C36.7226 50.8404 36.2343 50.6223 35.8916 50.2379L34.1046 48.2225C33.8449 47.9316 33.4606 47.755 33.0554 47.755H32.9722C32.5879 47.755 32.2243 47.9109 31.9543 48.1914L29.8349 50.4041Z" fill="white"/>
<path d="M30.479 57.0424L58.175 57.0528C53.6041 61.9354 47.1216 65 39.9015 65C32.6815 65 26.1886 61.9354 21.628 57.0528H21.7319C22.4903 57.0528 23.2175 56.7307 23.716 56.1594L25.2536 54.4245C25.5133 54.1336 25.8976 53.957 26.3028 53.957C26.708 53.957 27.082 54.1232 27.352 54.4245L29.139 56.4398C29.4817 56.8242 29.9701 57.0424 30.479 57.0424Z" fill="white"/>
</svg>
