<svg width="80" height="80" viewBox="0 0 80 80" fill="none" xmlns="http://www.w3.org/2000/svg">
<rect width="80" height="80" fill="#F7931A"/>
<path d="M57.5276 35.2962C58.2476 29.955 54.1894 27.1666 48.6256 25.2815L50.3537 18.0552L45.955 16.9948L44.2794 24.064C43.1143 23.7891 41.936 23.5142 40.7709 23.2785L42.4466 16.2093L37.9956 15.1489L36.2676 22.3752C35.325 22.1527 34.3694 21.9825 33.4268 21.76L27.3656 20.3068L26.2529 24.9804C26.2529 24.9804 29.5387 25.7004 29.4209 25.7658C31.2013 26.2109 31.5417 27.3761 31.4762 28.2663L29.5256 36.5006C29.6435 36.553 29.8006 36.553 29.9707 36.6708C29.8006 36.6184 29.6958 36.6184 29.5256 36.566L26.8551 48.0863C26.6325 48.6361 26.0696 49.4216 24.8521 49.1466C24.9045 49.199 21.6186 48.3612 21.6186 48.3612L19.5371 53.4274L25.271 54.7627C26.3314 55.0377 27.3918 55.2602 28.3867 55.5482L26.6587 62.84L31.0573 63.9004L32.7853 56.674C34.0159 57.0013 35.181 57.2893 36.2938 57.5642L34.5657 64.7382L38.9644 65.7986L40.6924 58.5068C48.2067 59.8421 53.8228 59.2268 56.1007 52.3801C57.9334 46.9211 55.9305 43.8054 51.9246 41.7501C54.857 41.0825 56.9778 39.1843 57.5276 35.2962ZM47.6307 49.4739C46.3478 54.9329 37.1185 52.0921 34.1599 51.3721L36.4378 41.6847C39.4487 42.4178 48.966 43.7531 47.6307 49.4739ZM48.8482 35.2962C47.6831 40.2447 39.9986 37.8621 37.4982 37.2468L39.6189 28.4626C42.067 29.0648 50.0787 30.1252 48.8482 35.2962Z" fill="white"/>
</svg>
