<svg width="80" height="80" viewBox="0 0 80 80" fill="none" xmlns="http://www.w3.org/2000/svg">
<rect width="80" height="80" fill="#0033AD"/>
<path d="M39.8866 22.2079C40.1273 22.2216 40.3667 22.1636 40.5745 22.0412C40.7823 21.9189 40.9491 21.7377 41.0538 21.5205C41.1585 21.3033 41.1965 21.0599 41.1629 20.8212C41.1294 20.5824 41.0257 20.359 40.8651 20.1791C40.7045 19.9993 40.4942 19.8711 40.2607 19.8108C40.0273 19.7505 39.7812 19.7608 39.5536 19.8404C39.326 19.92 39.1271 20.0653 38.9821 20.2579C38.8371 20.4506 38.7525 20.6819 38.7389 20.9226C38.7208 21.2452 38.8315 21.5618 39.0467 21.8028C39.2619 22.0438 39.564 22.1895 39.8866 22.2079Z" fill="white"/>
<path d="M50.489 22.8112C50.2994 22.813 50.1136 22.7584 49.955 22.6545C49.7427 22.5152 49.5942 22.2974 49.5423 22.0489C49.4904 21.8003 49.5393 21.5413 49.6783 21.3287C49.782 21.17 49.9304 21.0457 50.1049 20.9714C50.2793 20.8971 50.4718 20.8762 50.6581 20.9113C50.8444 20.9465 51.0161 21.0361 51.1514 21.1689C51.2868 21.3016 51.3797 21.4716 51.4184 21.6571C51.4572 21.8427 51.44 22.0356 51.3691 22.2115C51.2982 22.3873 51.1767 22.5381 51.0201 22.6449C50.8634 22.7516 50.6786 22.8095 50.489 22.8112Z" fill="white"/>
<path d="M29.8688 22.7551C30.037 22.6687 30.1759 22.5345 30.268 22.3694C30.3601 22.2042 30.4012 22.0155 30.3863 21.827C30.3714 21.6385 30.3011 21.4587 30.1841 21.3101C30.0672 21.1615 29.909 21.0508 29.7293 20.9919C29.5496 20.9331 29.3565 20.9287 29.1743 20.9794C28.9922 21.03 28.829 21.1334 28.7055 21.2766C28.582 21.4197 28.5036 21.5962 28.4801 21.7838C28.4567 21.9715 28.4893 22.1618 28.5738 22.331C28.6306 22.4442 28.7093 22.545 28.8052 22.6277C28.9012 22.7104 29.0126 22.7732 29.133 22.8127C29.2534 22.8521 29.3804 22.8673 29.5066 22.8574C29.6329 22.8475 29.756 22.8128 29.8688 22.7551Z" fill="white"/>
<path d="M30.8032 42.0919C30.2799 41.5043 30.0113 40.733 30.0564 39.9474L30.0483 39.949C30.0815 39.3715 30.2831 38.8163 30.6282 38.352C30.9733 37.8877 31.4468 37.5346 31.9902 37.3362C32.5337 37.1379 33.1233 37.1031 33.6863 37.236C34.2493 37.3689 34.7611 37.6637 35.1585 38.0842C35.5559 38.5046 35.8215 39.0321 35.9225 39.6018C36.0235 40.1714 35.9555 40.7581 35.7269 41.2895C35.4983 41.821 35.1191 42.2738 34.6361 42.5922C34.1531 42.9106 33.5875 43.0806 33.009 43.0813H32.8471C32.0616 43.0354 31.3265 42.6795 30.8032 42.0919Z" fill="white"/>
<path d="M18.4706 39.3276C18.6335 39.2315 18.8213 39.1858 19.0101 39.1964C19.1358 39.2032 19.2588 39.2348 19.3722 39.2893C19.4856 39.3438 19.5871 39.4202 19.6709 39.5141C19.7546 39.6079 19.8191 39.7174 19.8604 39.8362C19.9017 39.9551 19.9192 40.0809 19.9118 40.2065C19.9009 40.3953 19.8343 40.5767 19.7204 40.7277C19.6065 40.8787 19.4504 40.9926 19.2718 41.0549C19.0932 41.1172 18.9001 41.1251 18.717 41.0777C18.5339 41.0304 18.3689 40.9297 18.243 40.7886C18.117 40.6475 18.0357 40.4722 18.0093 40.2849C17.983 40.0976 18.0127 39.9067 18.0948 39.7363C18.1769 39.5659 18.3077 39.4237 18.4706 39.3276Z" fill="white"/>
<path d="M33.496 27.4038C33.352 27.6585 33.1357 27.8648 32.8745 27.9965C32.7009 28.0841 32.5118 28.1366 32.318 28.151C32.1241 28.1654 31.9293 28.1415 31.7447 28.0806C31.5601 28.0198 31.3893 27.9231 31.2421 27.7962C31.0949 27.6692 30.9741 27.5146 30.8867 27.3409C30.7551 27.0796 30.704 26.7852 30.7397 26.4948C30.7755 26.2044 30.8965 25.9311 31.0875 25.7095C31.2786 25.4879 31.531 25.3279 31.8129 25.2498C32.0949 25.1717 32.3937 25.1789 32.6715 25.2705C32.9494 25.3621 33.1938 25.5341 33.374 25.7646C33.5541 25.9952 33.6618 26.274 33.6836 26.5657C33.7053 26.8575 33.64 27.1491 33.496 27.4038Z" fill="white"/>
<path d="M22.7592 31.6014C22.9607 31.7339 23.1969 31.8036 23.4381 31.8018C23.6792 31.8 23.9144 31.7267 24.1139 31.5912C24.3133 31.4557 24.4681 31.264 24.5587 31.0405C24.6492 30.817 24.6714 30.5717 24.6224 30.3355C24.5735 30.0994 24.4556 29.8831 24.2837 29.714C24.1118 29.5449 23.8936 29.4306 23.6567 29.3855C23.4198 29.3404 23.1748 29.3667 22.9528 29.4609C22.7308 29.5551 22.5418 29.713 22.4095 29.9147C22.2325 30.1848 22.1698 30.5141 22.2354 30.8304C22.3009 31.1466 22.4893 31.4239 22.7592 31.6014Z" fill="white"/>
<path d="M23.7258 38.8598C23.9778 38.7113 24.2683 38.6408 24.5603 38.6573C24.9522 38.6798 25.3191 38.857 25.5805 39.1499C25.8418 39.4428 25.9762 39.8274 25.9541 40.2193C25.9373 40.5114 25.8343 40.792 25.6581 41.0255C25.4819 41.259 25.2404 41.4351 24.9642 41.5314C24.6879 41.6278 24.3893 41.6401 24.1061 41.5667C23.8229 41.4934 23.5678 41.3377 23.373 41.1194C23.1783 40.9011 23.0526 40.63 23.0119 40.3403C22.9712 40.0506 23.0173 39.7553 23.1443 39.4918C23.2714 39.2283 23.4738 39.0084 23.7258 38.8598Z" fill="white"/>
<path d="M22.9208 48.6043C22.7057 48.713 22.5276 48.883 22.4091 49.0929C22.2907 49.3028 22.2371 49.5431 22.2551 49.7835C22.2732 50.0238 22.3621 50.2534 22.5106 50.4433C22.6592 50.6331 22.8607 50.7746 23.0896 50.8499C23.3186 50.9253 23.5647 50.931 23.7969 50.8665C24.0292 50.802 24.2371 50.67 24.3943 50.4874C24.5516 50.3047 24.6511 50.0795 24.6805 49.8403C24.7098 49.6011 24.6675 49.3585 24.5589 49.1433C24.4868 49.0003 24.3872 48.8729 24.2659 48.7684C24.1445 48.6639 24.0037 48.5843 23.8516 48.5343C23.6994 48.4842 23.5389 48.4646 23.3792 48.4766C23.2195 48.4887 23.0637 48.532 22.9208 48.6043Z" fill="white"/>
<path d="M29.6423 35.8845C29.2978 35.8876 28.9602 35.7885 28.6721 35.5996C28.4806 35.4744 28.3157 35.3126 28.1868 35.1235C28.0579 34.9345 27.9675 34.7218 27.9209 34.4978C27.8743 34.2737 27.8724 34.0427 27.9151 33.8179C27.9579 33.5931 28.0446 33.379 28.1703 33.1877C28.3592 32.8997 28.6293 32.6741 28.9463 32.5395C29.2634 32.405 29.6133 32.3674 29.9517 32.4317C30.2901 32.4959 30.6019 32.6591 30.8476 32.9005C31.0933 33.142 31.2619 33.4508 31.332 33.7881C31.4022 34.1253 31.3708 34.4758 31.2418 34.7952C31.1128 35.1146 30.892 35.3886 30.6073 35.5825C30.3225 35.7764 29.9867 35.8815 29.6423 35.8845Z" fill="white"/>
<path d="M46.9184 27.88C47.1637 28.04 47.4509 28.1237 47.7438 28.1205C48.0366 28.1173 48.322 28.0273 48.5637 27.862C48.8055 27.6967 48.9928 27.4634 49.102 27.1916C49.2111 26.9198 49.2373 26.6218 49.1771 26.3351C49.1169 26.0485 48.9731 25.7862 48.7639 25.5812C48.5546 25.3763 48.2893 25.238 48.0015 25.1839C47.7136 25.1297 47.4162 25.1621 47.1468 25.2769C46.8774 25.3918 46.648 25.5839 46.4878 25.8291C46.3811 25.9919 46.3076 26.1742 46.2715 26.3655C46.2354 26.5568 46.2374 26.7534 46.2774 26.9439C46.3174 27.1345 46.3946 27.3152 46.5046 27.4758C46.6146 27.6365 46.7552 27.7738 46.9184 27.88Z" fill="white"/>
<path d="M47.1515 37.1275C46.763 37.1052 46.3739 37.1596 46.0065 37.2877C45.639 37.4157 45.3004 37.6149 45.0099 37.8738C44.4233 38.3967 44.0684 39.1312 44.0233 39.9158C43.9782 40.7004 44.2466 41.4707 44.7695 42.0574C45.2924 42.644 46.027 42.9989 46.8115 43.044H46.9831C47.5546 43.0437 48.1139 42.8781 48.5934 42.5671C49.073 42.2561 49.4523 41.8131 49.6857 41.2914C49.9191 40.7697 49.9966 40.1916 49.9088 39.6268C49.821 39.0621 49.5718 38.5348 49.191 38.1085C48.9332 37.8178 48.6201 37.5813 48.2699 37.4129C47.9197 37.2445 47.5395 37.1475 47.1515 37.1275Z" fill="white"/>
<path d="M34.9396 36.5862C34.4717 36.2982 34.0935 35.8853 33.8476 35.394C33.6214 34.9426 33.5144 34.4408 33.5366 33.9363C33.5588 33.4318 33.7096 32.9414 33.9745 32.5115C34.2395 32.0817 34.6099 31.7266 35.0506 31.4801C35.4912 31.2335 35.9876 31.1037 36.4926 31.1028C37.0408 31.1002 37.5788 31.2502 38.0466 31.5361C38.5143 31.822 38.8932 32.2325 39.1408 32.7215C39.3696 33.1734 39.4787 33.6764 39.4578 34.1825C39.4369 34.6886 39.2867 35.1809 39.0214 35.6124C38.7561 36.0439 38.3847 36.4002 37.9426 36.6474C37.5004 36.8945 37.0023 37.0242 36.4958 37.0241C35.9464 37.0259 35.4074 36.8742 34.9396 36.5862Z" fill="white"/>
<path d="M57.0758 31.598C57.2909 31.4894 57.4691 31.3195 57.5877 31.1097C57.7063 30.8999 57.76 30.6597 57.7422 30.4194C57.7243 30.179 57.6355 29.9494 57.4872 29.7595C57.3388 29.5695 57.1375 29.4279 56.9086 29.3523C56.6798 29.2768 56.4337 29.2708 56.2014 29.3351C55.9691 29.3994 55.7612 29.5311 55.6037 29.7136C55.4463 29.8961 55.3465 30.1211 55.3169 30.3603C55.2874 30.5995 55.3294 30.842 55.4376 31.0574C55.5833 31.3461 55.8377 31.5653 56.1448 31.6667C56.452 31.768 56.7868 31.7433 57.0758 31.598Z" fill="white"/>
<path d="M48.831 33.2393C49.0007 32.9395 49.2556 32.6968 49.5632 32.5418C49.7675 32.4387 49.99 32.3769 50.2182 32.3599C50.4463 32.3429 50.6756 32.3711 50.8929 32.4428C51.1101 32.5145 51.3111 32.6284 51.4843 32.7779C51.6575 32.9274 51.7995 33.1095 51.9023 33.314C52.0572 33.6216 52.1175 33.9683 52.0754 34.3102C52.0333 34.6521 51.8908 34.9739 51.6658 35.2348C51.4409 35.4957 51.1436 35.684 50.8116 35.776C50.4796 35.8679 50.1278 35.8594 49.8007 35.7514C49.4736 35.6434 49.1858 35.4408 48.9738 35.1693C48.7618 34.8978 48.6351 34.5695 48.6097 34.226C48.5843 33.8824 48.6613 33.539 48.831 33.2393Z" fill="white"/>
<path d="M40.856 29.6401C40.5593 29.8151 40.2175 29.8981 39.8736 29.8789C39.4122 29.8526 38.98 29.6441 38.6722 29.2993C38.3644 28.9544 38.2062 28.5015 38.2322 28.04C38.252 27.6962 38.3732 27.3659 38.5806 27.091C38.788 26.8161 39.0722 26.6088 39.3974 26.4953C39.7225 26.3819 40.074 26.3674 40.4074 26.4536C40.7409 26.5399 41.0412 26.7231 41.2705 26.98C41.4999 27.2369 41.6479 27.5561 41.6959 27.8971C41.7439 28.2381 41.6897 28.5857 41.5402 28.896C41.3907 29.2062 41.1526 29.4652 40.856 29.6401Z" fill="white"/>
<path d="M30.4368 47.6591C30.7444 47.5041 30.9991 47.2612 31.1687 46.9613C31.3383 46.6615 31.4152 46.318 31.3896 45.9745C31.364 45.6309 31.2371 45.3026 31.0249 45.0312C30.8127 44.7598 30.5248 44.5574 30.1976 44.4496C29.8704 44.3418 29.5186 44.3335 29.1866 44.4256C28.8547 44.5178 28.5575 44.7064 28.3327 44.9675C28.1079 45.2286 27.9656 45.5504 27.9238 45.8924C27.882 46.2344 27.9425 46.5811 28.0977 46.8886C28.3058 47.3009 28.6691 47.6137 29.1077 47.7582C29.5463 47.9027 30.0244 47.8671 30.4368 47.6591Z" fill="white"/>
<path d="M40.5243 34.2845C40.4707 33.6276 40.6378 32.9716 40.999 32.4203C41.2691 32.0087 41.6373 31.6709 42.0705 31.4372C42.5037 31.2034 42.9883 31.0813 43.4805 31.0816C44.1396 31.0824 44.7796 31.3031 45.2992 31.7086C45.8188 32.1141 46.1883 32.6813 46.3493 33.3204C46.5103 33.9595 46.4535 34.6341 46.1879 35.2374C45.9224 35.8406 45.4632 36.338 44.8832 36.651C44.3031 36.9639 43.6352 37.0744 42.9853 36.9651C42.3353 36.8557 41.7404 36.5327 41.2946 36.0472C40.8489 35.5617 40.5778 34.9414 40.5243 34.2845Z" fill="white"/>
<path d="M46.1495 44.8084C45.9122 44.3377 45.5536 43.939 45.1107 43.6532C44.6678 43.3674 44.1567 43.2049 43.6301 43.1826C43.1035 43.1603 42.5804 43.2788 42.1149 43.5261C41.6494 43.7733 41.2584 44.1403 40.982 44.5891C40.7057 45.038 40.5541 45.5524 40.5429 46.0794C40.5318 46.6064 40.6614 47.1268 40.9184 47.5869C41.1755 48.0471 41.5507 48.4303 42.0053 48.6971C42.4599 48.9638 42.9774 49.1045 43.5045 49.1045C43.9682 49.1013 44.4248 48.9904 44.8383 48.7807C45.5378 48.4266 46.0685 47.8098 46.3143 47.0653C46.56 46.3208 46.5008 45.5093 46.1495 44.8084Z" fill="white"/>
<path d="M50.3563 44.3155C50.7008 44.3127 51.0384 44.4121 51.3263 44.6012C51.7118 44.8553 51.9809 45.2518 52.0746 45.7038C52.1684 46.1559 52.0792 46.6267 51.8265 47.0131C51.6375 47.3011 51.3673 47.5265 51.0501 47.6609C50.7329 47.7953 50.383 47.8327 50.0446 47.7682C49.7062 47.7038 49.3945 47.5404 49.149 47.2988C48.9034 47.0572 48.735 46.7482 48.665 46.4109C48.5951 46.0736 48.6267 45.7231 48.756 45.4038C48.8852 45.0845 49.1062 44.8106 49.3911 44.6169C49.6759 44.4232 50.0119 44.3183 50.3563 44.3155Z" fill="white"/>
<path d="M56.9985 40.1513C57.015 39.8592 56.9445 39.5688 56.7959 39.3167C56.6474 39.0647 56.4275 38.8624 56.164 38.7353C55.9004 38.6082 55.6052 38.5621 55.3155 38.6028C55.0258 38.6435 54.7546 38.7692 54.5363 38.964C54.318 39.1587 54.1624 39.4138 54.089 39.6971C54.0157 39.9803 54.028 40.2789 54.1243 40.5551C54.2206 40.8314 54.3967 41.0728 54.6303 41.249C54.8638 41.4252 55.1443 41.5282 55.4364 41.545C55.8283 41.5671 56.213 41.4327 56.5059 41.1714C56.7988 40.9101 56.9759 40.5432 56.9985 40.1513Z" fill="white"/>
<path d="M60.5561 39.2282C60.7195 39.1321 60.9077 39.0867 61.0969 39.0976C61.3504 39.1126 61.5877 39.2275 61.7567 39.4171C61.9257 39.6068 62.0127 39.8556 61.9985 40.1093C61.9876 40.2985 61.9209 40.4802 61.8067 40.6315C61.6925 40.7828 61.5361 40.8968 61.3571 40.9592C61.1781 41.0216 60.9846 41.0294 60.8012 40.9818C60.6177 40.9343 60.4525 40.8333 60.3264 40.6918C60.2003 40.5503 60.119 40.3746 60.0927 40.1869C60.0665 39.9992 60.0965 39.8079 60.179 39.6373C60.2615 39.4666 60.3927 39.3243 60.5561 39.2282Z" fill="white"/>
<path d="M57.2381 48.5997C57.0365 48.4676 56.8002 48.3983 56.5592 48.4005C56.3182 48.4027 56.0832 48.4763 55.884 48.612C55.6848 48.7477 55.5303 48.9394 55.4401 49.1629C55.3498 49.3864 55.3279 49.6316 55.3769 49.8676C55.426 50.1036 55.544 50.3197 55.7159 50.4887C55.8878 50.6576 56.106 50.7718 56.3428 50.8168C56.5796 50.8618 56.8244 50.8356 57.0463 50.7414C57.2682 50.6473 57.4572 50.4895 57.5894 50.288C57.6773 50.1541 57.7379 50.0042 57.7678 49.8469C57.7977 49.6895 57.7963 49.5278 57.7636 49.371C57.731 49.2143 57.6678 49.0654 57.5776 48.9331C57.4875 48.8007 57.3721 48.6874 57.2381 48.5997Z" fill="white"/>
<path d="M29.5098 57.3893C29.6993 57.3877 29.885 57.4423 30.0434 57.5463C30.1487 57.6154 30.2393 57.7045 30.3101 57.8086C30.3809 57.9127 30.4305 58.0297 30.456 58.153C30.4816 58.2762 30.4826 58.4033 30.459 58.527C30.4355 58.6507 30.3877 58.7685 30.3186 58.8737C30.2146 59.0321 30.0659 59.156 29.8914 59.2299C29.7169 59.3038 29.5244 59.3243 29.3382 59.2888C29.1521 59.2533 28.9806 59.1634 28.8455 59.0305C28.7105 58.8976 28.6178 58.7276 28.5794 58.542C28.5409 58.3565 28.5583 58.1637 28.6294 57.988C28.7005 57.8123 28.8221 57.6617 28.9788 57.5551C29.1355 57.4485 29.3203 57.3908 29.5098 57.3893Z" fill="white"/>
<path d="M50.1285 57.446C49.9592 57.5313 49.8191 57.6649 49.7257 57.8299C49.6324 57.9949 49.5901 58.1838 49.6042 58.3728C49.6182 58.5619 49.688 58.7425 49.8047 58.8918C49.9214 59.0412 50.0798 59.1525 50.2599 59.2119C50.4399 59.2712 50.6334 59.2758 50.8161 59.2251C50.9987 59.1744 51.1622 59.0707 51.2859 58.9271C51.4096 58.7835 51.4879 58.6064 51.511 58.4182C51.534 58.2301 51.5007 58.0393 51.4154 57.8701C51.3589 57.7576 51.2807 57.6574 51.1854 57.5752C51.0901 57.493 50.9795 57.4304 50.86 57.391C50.7404 57.3516 50.6143 57.3362 50.4887 57.3456C50.3632 57.355 50.2408 57.3892 50.1285 57.446Z" fill="white"/>
<path d="M39.473 45.9113C39.5265 46.5683 39.3595 47.2244 38.9982 47.7757C38.7295 48.1882 38.3618 48.5268 37.9286 48.7606C37.4954 48.9944 37.0106 49.1161 36.5183 49.1144C35.8591 49.1139 35.219 48.8936 34.6991 48.4883C34.1793 48.083 33.8095 47.5159 33.6482 46.8768C33.487 46.2376 33.5435 45.563 33.8089 44.9596C34.0743 44.3562 34.5333 43.8585 35.1133 43.5454C35.6934 43.2323 36.3613 43.1216 37.0114 43.2308C37.6614 43.34 38.2565 43.663 38.7023 44.1485C39.1482 44.634 39.4194 45.2543 39.473 45.9113Z" fill="white"/>
<path d="M33.0783 52.3228C32.8335 52.1626 32.5467 52.0786 32.2541 52.0814C31.9616 52.0843 31.6764 52.1737 31.4347 52.3386C31.193 52.5034 31.0056 52.7362 30.8962 53.0075C30.7868 53.2788 30.7603 53.5765 30.82 53.8629C30.8797 54.1493 31.023 54.4116 31.2318 54.6166C31.4405 54.8215 31.7053 54.96 31.9928 55.0145C32.2802 55.069 32.5773 55.0371 32.8466 54.9227C33.1159 54.8084 33.3453 54.6167 33.5057 54.3721C33.7205 54.0436 33.7962 53.6432 33.7161 53.259C33.6359 52.8748 33.4065 52.538 33.0783 52.3228Z" fill="white"/>
<path d="M39.2978 58.1596C39.5055 58.0373 39.7448 57.9794 39.9854 57.993C40.1453 58.0021 40.3018 58.0426 40.446 58.1122C40.5902 58.1819 40.7193 58.2792 40.8259 58.3987C40.9325 58.5182 41.0145 58.6575 41.0672 58.8087C41.1199 58.96 41.1423 59.1201 41.1331 59.2799C41.1193 59.5206 41.0344 59.7517 40.8892 59.9441C40.744 60.1366 40.5451 60.2816 40.3174 60.361C40.0898 60.4403 39.8438 60.4504 39.6105 60.3899C39.3771 60.3294 39.167 60.2012 39.0065 60.0213C38.8461 59.8414 38.7426 59.6179 38.7091 59.3792C38.6757 59.1405 38.7137 58.8972 38.8185 58.6802C38.9233 58.4631 39.09 58.2819 39.2978 58.1596Z" fill="white"/>
<path d="M39.9981 50.3234C39.654 50.3024 39.3114 50.3841 39.0137 50.5581C38.716 50.732 38.4767 50.9904 38.3259 51.3005C38.1752 51.6106 38.1199 51.9585 38.1671 52.3C38.2142 52.6416 38.3617 52.9614 38.5907 53.2191C38.8198 53.4768 39.1202 53.6607 39.4539 53.7475C39.7875 53.8343 40.1395 53.8202 40.4651 53.7068C40.7907 53.5935 41.0754 53.386 41.283 53.1108C41.4906 52.8355 41.6119 52.5048 41.6314 52.1606C41.658 51.7005 41.5009 51.2487 41.1947 50.9042C40.8885 50.5598 40.4582 50.3509 39.9981 50.3234Z" fill="white"/>
<path d="M46.5012 52.7997C46.6448 52.5442 46.8609 52.337 47.1223 52.2044C47.2954 52.1161 47.4842 52.0628 47.6779 52.0475C47.8717 52.0323 48.0665 52.0554 48.2513 52.1156C48.4361 52.1757 48.6072 52.2717 48.7548 52.398C48.9025 52.5244 49.0237 52.6786 49.1117 52.8519C49.2449 53.1129 49.2977 53.4077 49.2634 53.6987C49.2291 53.9898 49.1091 54.2642 48.9188 54.487C48.7285 54.7099 48.4763 54.8713 48.1942 54.9509C47.9121 55.0303 47.6128 55.0244 47.3341 54.9337C47.0554 54.8429 46.8098 54.6716 46.6286 54.4413C46.4473 54.211 46.3384 53.932 46.3158 53.6398C46.2931 53.3476 46.3576 53.0553 46.5012 52.7997Z" fill="white"/>
</svg>
