<svg width="80" height="80" viewBox="0 0 80 80" fill="none" xmlns="http://www.w3.org/2000/svg">
<g clip-path="url(#clip0_768_556)">
<rect width="80" height="80" fill="#000008"/>
<path d="M80.4473 -0.00292969H-0.552734V80.9971H80.4473V-0.00292969Z" fill="#6E54FF"/>
<path d="M40.447 14.9971C33.2278 14.9971 15.4473 32.7771 15.4473 39.9971C15.4473 47.2167 33.2278 64.9971 40.447 64.9971C47.6664 64.9971 65.4473 47.2164 65.4473 39.9971C65.4473 32.7774 47.6668 14.9971 40.447 14.9971ZM36.5512 54.2927C33.507 53.4631 25.3219 39.1454 26.1517 36.1011C26.9814 33.0566 41.2989 24.8717 44.3431 25.7014C47.3877 26.5311 55.5726 40.8484 54.743 43.8931C53.9131 46.9374 39.5958 55.1224 36.5512 54.2927Z" fill="white"/>
</g>
<defs>
<clipPath id="clip0_768_556">
<rect width="80" height="80" fill="white"/>
</clipPath>
</defs>
</svg>
