<svg width="80" height="80" viewBox="0 0 80 80" fill="none" xmlns="http://www.w3.org/2000/svg">
<rect width="80" height="80" fill="#000008"/>
<path d="M61.2258 50.9573L54.1274 58.4795C53.9731 58.6429 53.7863 58.7732 53.5789 58.8623C53.3714 58.9513 53.1476 58.9972 52.9214 58.9971H19.2713C19.1108 58.9971 18.9537 58.9507 18.8195 58.8637C18.6852 58.7767 18.5796 58.6529 18.5156 58.5073C18.4516 58.3619 18.432 58.2011 18.4592 58.0447C18.4864 57.8883 18.5593 57.7432 18.6688 57.6273L25.7726 50.1051C25.9265 49.9421 26.1126 49.8121 26.3194 49.7231C26.5262 49.634 26.7493 49.5879 26.9749 49.5875H60.6232C60.7837 49.5875 60.9408 49.6339 61.0751 49.7209C61.2092 49.8079 61.3148 49.9318 61.3791 50.0773C61.443 50.2228 61.4626 50.3836 61.4353 50.5399C61.4081 50.6963 61.3353 50.8414 61.2258 50.9573ZM54.1274 35.8098C53.9731 35.6464 53.7863 35.5161 53.5789 35.4271C53.3714 35.3381 53.1476 35.2922 52.9214 35.2923H19.2713C19.1108 35.2923 18.9537 35.3387 18.8195 35.4257C18.6852 35.5127 18.5796 35.6365 18.5156 35.782C18.4516 35.9275 18.432 36.0883 18.4592 36.2447C18.4864 36.401 18.5593 36.5461 18.6688 36.6621L25.7726 44.1843C25.9265 44.3473 26.1126 44.4773 26.3194 44.5663C26.5262 44.6553 26.7493 44.7015 26.9749 44.7018H60.6232C60.7837 44.7018 60.9408 44.6555 61.0751 44.5685C61.2092 44.4815 61.3148 44.3576 61.3791 44.2121C61.443 44.0666 61.4626 43.9058 61.4353 43.7494C61.4081 43.5931 61.3353 43.448 61.2258 43.332L54.1274 35.8098ZM19.2713 30.4066H52.9214C53.1476 30.4067 53.3714 30.3608 53.5789 30.2718C53.7863 30.1827 53.9731 30.0525 54.1274 29.8891L61.2258 22.3669C61.3353 22.2509 61.4081 22.1058 61.4353 21.9494C61.4626 21.7931 61.443 21.6323 61.3791 21.4868C61.3148 21.3413 61.2092 21.2174 61.0751 21.1304C60.9408 21.0434 60.7837 20.9971 60.6232 20.9971H26.9749C26.7493 20.9974 26.5262 21.0436 26.3194 21.1326C26.1126 21.2216 25.9265 21.3516 25.7726 21.5146L18.6707 29.0368C18.5612 29.1526 18.4884 29.2976 18.4611 29.4538C18.4338 29.6099 18.4533 29.7706 18.517 29.9161C18.5808 30.0615 18.6861 30.1853 18.8201 30.2725C18.9541 30.3596 19.1109 30.4062 19.2713 30.4066Z" fill="url(#paint0_linear_627_2682)"/>
<defs>
<linearGradient id="paint0_linear_627_2682" x1="22.077" y1="59.9027" x2="56.8924" y2="20.1828" gradientUnits="userSpaceOnUse">
<stop offset="0.08" stop-color="#9945FF"/>
<stop offset="0.3" stop-color="#8752F3"/>
<stop offset="0.5" stop-color="#5497D5"/>
<stop offset="0.6" stop-color="#43B4CA"/>
<stop offset="0.72" stop-color="#28E0B9"/>
<stop offset="0.97" stop-color="#19FB9B"/>
</linearGradient>
</defs>
</svg>
