<svg width="80" height="80" viewBox="0 0 80 80" fill="none" xmlns="http://www.w3.org/2000/svg">
<rect width="80" height="80" fill="#FF060A"/>
<path d="M60.1008 33.2554C58.0384 31.3511 55.1853 28.443 52.8616 26.3805L52.7241 26.2843C52.4953 26.1005 52.2374 25.9565 51.961 25.858C46.358 24.813 20.2815 19.9387 19.7728 20.0006C19.6302 20.0205 19.494 20.0722 19.3741 20.1518L19.2434 20.255C19.0826 20.4183 18.9604 20.6156 18.8859 20.8324L18.8516 20.9218V21.4099V21.4856C21.7871 29.6598 33.3782 56.4376 35.6606 62.7213C35.7981 63.1475 36.0594 63.9587 36.5475 64H36.6575C36.9187 64 38.0325 62.5288 38.0325 62.5288C38.0325 62.5288 57.9421 38.3841 59.9565 35.8129C60.2172 35.4962 60.4474 35.1555 60.6439 34.7954C60.6941 34.5136 60.6705 34.2237 60.5753 33.9538C60.4801 33.684 60.3166 33.4433 60.1008 33.2554ZM43.1405 36.0672L51.6379 29.0205L56.6221 33.6129L43.1405 36.0672ZM39.8406 35.6066L25.2108 23.6168L48.881 27.9824L39.8406 35.6066ZM41.1605 38.7485L56.134 36.3354L39.0156 56.9601L41.1605 38.7485ZM23.224 24.813L38.6168 37.8753L36.3894 56.9738L23.224 24.813Z" fill="white"/>
</svg>
