<svg width="80" height="80" viewBox="0 0 80 80" fill="none" xmlns="http://www.w3.org/2000/svg">
<rect width="80" height="80" transform="matrix(1 0 0 -1 0 80)" fill="url(#paint0_linear_627_3035)"/>
<path fill-rule="evenodd" clip-rule="evenodd" d="M19.1322 14.8109C24.1014 20.9029 29.5576 28.5562 30.4401 29.7941C30.4871 29.8601 30.5212 29.9079 30.5415 29.9362C31.0119 30.593 31.4003 31.0812 31.6952 31.4519C32.3499 32.275 32.5442 32.5193 32.1535 32.7436C31.8384 32.9245 31.5133 32.9842 31.189 32.9842C30.8221 32.9842 30.4087 32.8057 30.1077 32.5174C29.895 32.3136 28.4393 30.1781 26.4571 27.0715C24.9404 24.6944 23.6712 22.7225 23.6366 22.6895C23.5565 22.6131 23.5579 22.6157 26.3025 27.576C28.0258 30.6907 29.2047 32.9924 29.2047 33.1396C29.2047 33.4391 29.1238 33.5966 28.7579 34.0087C28.1481 34.696 27.8755 35.4681 27.6787 37.0661C27.4581 38.8573 26.8377 40.1228 25.1185 42.2884C24.1122 43.5562 23.9475 43.7885 23.6936 44.2995C23.3737 44.9429 23.2858 45.3033 23.2501 46.1158C23.2125 46.975 23.2858 47.5299 23.5457 48.3512C23.7732 49.0702 24.0106 49.5452 24.6176 50.4949C25.1415 51.3143 25.4432 51.9233 25.4432 52.1616C25.4432 52.3512 25.479 52.3514 26.2908 52.1664C28.2334 51.7231 29.8109 50.944 30.698 49.9889C31.2471 49.3976 31.376 49.0713 31.3802 48.2612C31.383 47.7313 31.3645 47.6205 31.2227 47.3156C30.9919 46.8193 30.5717 46.407 29.6455 45.7675C28.432 44.9294 27.9136 44.2549 27.7705 43.3272C27.653 42.566 27.7893 42.0289 28.4606 40.6078C29.1555 39.1367 29.3277 38.5098 29.4442 37.0269C29.5194 36.0689 29.6236 35.6911 29.8961 35.3879C30.1803 35.0717 30.4361 34.9646 31.1395 34.8674C32.2861 34.7093 33.0163 34.4096 33.6164 33.851C34.1371 33.3664 34.355 32.8994 34.3884 32.1965L34.4138 31.6637L34.1228 31.3211C33.0692 30.0802 18.4266 13.8354 18.3617 13.8354C18.3479 13.8354 18.6946 14.2744 19.1322 14.8109ZM26.0346 47.0879C26.2729 46.6616 26.1463 46.1139 25.7478 45.8462C25.3713 45.5934 24.7864 45.7125 24.7864 46.042C24.7864 46.1425 24.8414 46.2157 24.9655 46.2803C25.1744 46.3889 25.1896 46.511 25.0252 46.7605C24.8588 47.0133 24.8722 47.2354 25.0631 47.3863C25.3709 47.6298 25.8065 47.4959 26.0346 47.0879ZM33.205 23.8495C32.7349 23.7759 32.7151 23.7672 32.9363 23.7329C33.3603 23.667 34.3612 23.7568 35.051 23.9225C36.6614 24.3091 38.1267 25.2995 39.6908 27.0586L40.1063 27.5259L40.7008 27.4294C43.2052 27.0229 45.7528 27.3459 47.8837 28.3402C48.47 28.6138 49.3942 29.1583 49.5096 29.2982C49.5463 29.3428 49.6141 29.6299 49.6597 29.9362C49.818 30.9959 49.7388 31.8082 49.4178 32.4149C49.2433 32.7451 49.2336 32.8497 49.3509 33.1322C49.4446 33.3577 49.7059 33.5246 49.9647 33.5242C50.4942 33.5235 51.064 32.6588 51.3283 31.4558L51.4331 30.9779L51.641 31.2157C52.7807 32.5201 53.6761 34.2991 53.8299 35.5653L53.8699 35.8954L53.6784 35.5954C53.3485 35.079 53.0174 34.7273 52.593 34.4438C51.8283 33.9326 51.0195 33.7587 48.878 33.6447C46.9437 33.5417 45.8492 33.3749 44.7637 33.0173C42.9167 32.4091 41.9858 31.5991 39.7919 28.6919C38.8176 27.4006 38.2153 26.6861 37.6162 26.1107C36.2549 24.8034 34.9173 24.1178 33.205 23.8495ZM49.9458 26.7327C49.9945 25.8674 50.1108 25.2967 50.3443 24.7754C50.4368 24.5691 50.5234 24.4003 50.5367 24.4003C50.5501 24.4003 50.5099 24.5526 50.4473 24.7386C50.2776 25.2445 50.2496 25.9364 50.3667 26.7413C50.5151 27.7627 50.5997 27.9101 51.6683 29.0134C52.1696 29.5309 52.7527 30.1836 52.9641 30.4638L53.3485 30.9733L52.9641 30.6092C52.4941 30.1639 51.4132 29.2955 51.1745 29.1713C51.0143 29.0881 50.9905 29.0895 50.8918 29.1888C50.8009 29.2803 50.7816 29.4177 50.769 30.0676C50.7493 31.0804 50.6127 31.7305 50.2828 32.3806C50.1044 32.7321 50.0762 32.6571 50.2376 32.2603C50.3582 31.964 50.3705 31.8337 50.3696 30.8532C50.3678 28.8832 50.1361 28.4096 48.7781 27.5982C48.4343 27.3927 47.8674 27.0963 47.5186 26.9395C47.17 26.7827 46.893 26.6461 46.9029 26.6359C46.9415 26.5973 48.2659 26.9877 48.7988 27.1948C49.5917 27.5028 49.7225 27.5428 49.8188 27.5056C49.8833 27.4807 49.9146 27.2908 49.9458 26.7327ZM32.7012 25.2203C32.5734 26.7412 33.1638 28.7759 34.1181 30.1029C34.8579 31.1316 36.0046 31.9309 36.8512 32.0082C37.4055 32.0587 37.5721 31.8834 37.3213 31.5135C36.9732 30.9999 36.5449 30.2091 36.4316 29.8706C36.3612 29.6602 36.2083 29.0389 36.0917 28.4899C35.6936 26.6156 35.3023 25.8857 34.3985 25.3312C34.0692 25.1292 33.3659 24.8648 32.958 24.7896L32.7407 24.7496L32.7012 25.2203ZM48.7885 39.9792C44.3287 38.1656 42.758 36.5913 42.758 33.935C42.758 33.5441 42.7714 33.2243 42.7876 33.2243C42.804 33.2243 42.9764 33.3533 43.171 33.511C44.0753 34.2436 45.088 34.5566 47.8916 34.9696C49.5411 35.2128 50.4695 35.4091 51.326 35.6961C54.0479 36.6079 55.732 38.4582 56.1337 40.9787C56.2503 41.711 56.1819 43.0843 55.9927 43.8081C55.8433 44.3799 55.3874 45.4102 55.2666 45.4498C55.233 45.4608 55.2001 45.331 55.1916 45.1545C55.1458 44.2081 54.6723 43.2868 53.8772 42.5965C52.973 41.8117 51.7583 41.1872 48.7885 39.9792ZM45.4422 39.7797C45.5048 39.968 45.6017 40.3968 45.6575 40.7327C46.0147 42.88 44.8988 44.6149 42.7281 45.2871C42.4983 45.3582 41.5931 45.5372 40.7166 45.6846C38.9422 45.983 38.1502 46.1943 37.3546 46.5814C36.7904 46.856 36.1073 47.2672 36.1479 47.308C36.161 47.3212 36.2898 47.2902 36.434 47.239C37.4373 46.8832 38.5539 46.6989 40.2503 46.6098C40.9236 46.5746 41.6893 46.5182 41.9521 46.4849C43.4634 46.2926 44.5109 45.8288 45.3255 44.9914C45.7787 44.5254 46.0489 44.0912 46.2667 43.4791C46.4048 43.0907 46.4234 42.9465 46.4244 42.2585C46.4257 41.5575 46.4089 41.4292 46.2593 40.998C46.0634 40.4326 45.8324 40.0085 45.5398 39.6767L45.3284 39.4371L45.4422 39.7797ZM47.702 44.4C47.1093 43.1133 46.9734 41.8712 47.2979 40.7128C47.3327 40.5889 47.3885 40.4876 47.4222 40.4876C47.4558 40.4876 47.5955 40.564 47.7329 40.6573C48.0058 40.843 48.5535 41.1557 50.0124 41.9591C51.8331 42.9616 52.8711 43.7379 53.5769 44.625C54.195 45.4017 54.5776 46.2864 54.7616 47.3652C54.866 47.9763 54.8049 49.4468 54.6497 50.062C54.1602 52.0023 53.0225 53.5262 51.4 54.4156C51.1623 54.5457 50.9488 54.6527 50.9256 54.6533C50.9026 54.6537 50.9892 54.4314 51.1181 54.1589C51.664 53.0063 51.7261 51.8852 51.3135 50.6375C51.0607 49.8734 50.5456 48.9411 49.5053 47.3654C48.2959 45.5335 47.9994 45.0459 47.702 44.4ZM36.5408 48.6199C34.6651 48.9277 32.606 49.9302 30.951 51.3416L30.4583 51.7619L30.8913 51.8303C33.1509 52.1865 33.7594 52.5025 35.3268 54.1334C36.2287 55.0717 36.5334 55.2806 37.2815 55.4735C38.3803 55.7568 39.4635 55.2362 39.835 54.2461C40.001 53.8037 39.9788 53.0711 39.7884 52.7033C39.3354 51.8274 38.0156 51.5443 37.3774 52.1859C36.8459 52.7203 37.0007 53.5254 37.6619 53.6638C37.8132 53.6957 37.8089 53.6889 37.6233 53.6041C37.334 53.4719 37.2083 53.2887 37.2067 52.9972C37.203 52.3135 37.9775 51.9297 38.698 52.258C39.2256 52.4986 39.4351 52.8127 39.4351 53.3635C39.4351 54.2117 38.7204 54.8508 37.8887 54.7463C37.4441 54.6904 36.9004 54.4032 36.6089 54.0704C35.8753 53.2326 36.1611 51.9105 37.1853 51.4032C37.965 51.0171 39.0015 51.1122 39.8052 51.6438C40.7286 52.2547 41.1213 52.8129 41.9166 54.6452C42.1757 55.2418 42.5089 55.9134 42.657 56.1377C43.4105 57.2768 44.3132 57.8354 45.4005 57.8354C46.0002 57.8354 46.4514 57.7248 47.019 57.4386C47.4407 57.2258 48.0385 56.8215 47.9954 56.7782C47.9832 56.766 47.8083 56.8209 47.6067 56.9002C46.4195 57.368 45.2126 57.3358 44.5117 56.8176C44.0703 56.4914 43.7143 55.8415 43.5313 55.0288C43.4996 54.8881 43.3952 54.2668 43.299 53.648C43.0553 52.0798 42.8214 51.3748 42.2757 50.5658C41.7175 49.7381 40.6442 49.0435 39.4444 48.7333C38.6958 48.5397 37.3492 48.4871 36.5408 48.6199ZM33.9138 36.4945C34.0758 35.8903 34.5991 35.314 35.1374 35.1469C35.4797 35.0408 36.1872 35.1086 36.5199 35.2794C37.1646 35.6105 37.6327 36.3646 37.5311 36.909C37.4072 37.5727 36.3415 38.1038 35.1156 38.1125C34.4895 38.1169 34.2582 38.0319 34.0191 37.7095C33.8711 37.5097 33.815 36.8632 33.9138 36.4945ZM36.3553 35.516C36.6768 35.7143 36.7595 36.0076 36.5705 36.2788C36.4403 36.4657 36.0371 36.6433 35.7425 36.6433C35.2999 36.6433 34.8171 36.3258 34.8171 36.0351C34.8171 35.4509 35.743 35.1382 36.3553 35.516Z" fill="#FF007A"/>
<defs>
<linearGradient id="paint0_linear_627_3035" x1="57.9648" y1="76.5029" x2="16.4648" y2="0.00292604" gradientUnits="userSpaceOnUse">
<stop stop-color="#FAE6F2"/>
<stop offset="1" stop-color="#FDF8FC"/>
</linearGradient>
</defs>
</svg>
