<svg width="80" height="80" viewBox="0 0 80 80" fill="none" xmlns="http://www.w3.org/2000/svg">
<rect width="80" height="80" fill="url(#paint0_linear_844_608)"/>
<path fill-rule="evenodd" clip-rule="evenodd" d="M57.3932 28.3783V21.9971H22.5013V28.3783H35.5988V32.8026C26.4 33.2754 19.4988 35.2173 19.4476 37.5449L19.4473 42.3971C19.4985 44.7246 26.4 46.6665 35.5988 47.1393V57.9971H44.2958V47.1393C53.4945 46.6665 60.3958 44.7246 60.447 42.3971L60.4473 37.5449C60.3961 35.2173 53.4945 33.2754 44.2958 32.8026V28.3783H57.3932ZM59.9772 39.971C57.9692 42.1637 49.764 43.8058 39.9473 43.8058C30.1305 43.8058 21.9254 42.1637 19.9173 39.971C21.6202 38.1115 27.7794 36.648 35.5988 36.2461V40.8784C37.0003 40.9504 38.4552 40.9884 39.9473 40.9884C41.4393 40.9884 42.8942 40.9504 44.2958 40.8784V36.2461C52.1151 36.648 58.2744 38.1115 59.9772 39.971Z" fill="white"/>
<defs>
<linearGradient id="paint0_linear_844_608" x1="21.6973" y1="91.25" x2="162.697" y2="49.75" gradientUnits="userSpaceOnUse">
<stop stop-color="#D1A000"/>
<stop offset="1" stop-color="#FFE200"/>
</linearGradient>
</defs>
</svg>
