<svg width="24" height="24" viewBox="0 0 24 24" fill="none" xmlns="http://www.w3.org/2000/svg">
<rect width="24" height="24" fill="#E33E3F"/>
<path d="M15.5186 13.9272C15.9811 13.9272 16.2127 13.9271 16.3564 14.0708C16.5002 14.2145 16.5 14.4462 16.5 14.9087V15.564C16.5 16.4893 16.5002 16.9522 16.2129 17.2397C15.9253 17.5273 15.4618 17.5278 14.5361 17.5278H9.46387C8.53842 17.5278 8.07567 17.5271 7.78809 17.2397C7.50054 16.9522 7.5 16.4894 7.5 15.564V14.9087C7.5 14.4462 7.49982 14.2145 7.64355 14.0708C7.7873 13.9271 8.01891 13.9272 8.48145 13.9272H15.5186ZM12 6.35889C16.5653 6.35889 16.5 9.40238 16.5 10.8589V12.4956C16.4999 12.7667 16.2799 12.9868 16.0088 12.9868H7.99121C7.72012 12.9868 7.50006 12.7667 7.5 12.4956C7.5 12.4956 7.5 12.3153 7.5 10.8589C7.49999 9.40239 7.43478 6.35893 12 6.35889ZM12 7.51904C11.2319 7.5191 10.6094 8.14155 10.6094 8.90967C10.6094 9.67778 11.2319 10.3002 12 10.3003C12.7682 10.3003 13.3906 9.67782 13.3906 8.90967C13.3906 8.14151 12.7682 7.51904 12 7.51904ZM11.999 4.47217C12.9841 4.47222 13.8462 4.81673 14.0742 5.37744C14.1085 5.47387 14.1258 5.52222 14.0957 5.55811C14.0652 5.59402 14.0058 5.58342 13.8877 5.56201C13.5822 5.50665 13.1493 5.46877 12.7686 5.45752C12.5258 5.44448 12.2695 5.43799 12 5.43799C11.7305 5.43799 11.4742 5.44448 11.2314 5.45752C10.849 5.46877 10.4149 5.50658 10.1084 5.56006C9.99335 5.58013 9.93565 5.59047 9.90527 5.55518C9.87497 5.51935 9.89128 5.47144 9.9248 5.37646C10.151 4.81748 11.0142 4.47217 11.999 4.47217Z" fill="white"/>
</svg>
