<svg width="80" height="80" viewBox="0 0 80 80" fill="none" xmlns="http://www.w3.org/2000/svg">
<rect width="80" height="80" fill="white"/>
<path d="M49.856 27.6904V22.8438H25.627V56.7662H32.8989V54.345H37.7415V51.9195H42.5881V49.4982H49.856V47.0769H52.2816V44.6516H49.856V47.0729V49.4943H42.5881V47.0729V37.3796H54.7028V44.6475V30.1117H49.856V27.6863V27.6904ZM49.8601 44.6557H52.2816V47.0769H49.8601V44.6557ZM40.1668 51.9195H37.7415V54.345H28.0523V39.805H30.4736V42.2303H32.8989V44.6516H35.3202V47.0769H37.7415V49.4982H40.1668V51.9195ZM42.5881 34.9583H40.1668V37.3837H32.8989V34.9583H40.1668H30.4736V27.6904H32.8989V25.2691H40.1668V27.6904H42.5881V34.9583Z" fill="#D7D7D7"/>
<path d="M37.741 27.6909H32.8984V32.5375H37.741V27.6909Z" fill="#29F91E"/>
<path d="M40.1609 27.6908H40.1649V25.2695H32.897V27.6908H37.7396V32.5374H32.897H32.893V27.6908H32.897H30.4717V34.9587H40.1649H40.1609V27.6908Z" fill="#087903"/>
<path d="M49.8554 39.8047H45.0088V44.6513H49.8554V39.8047Z" fill="#7C0404"/>
<path d="M42.5879 47.0766H43.4969H49.8558V44.6512H45.0092V39.8046H49.8558V44.6512H52.2811V37.3833H42.5879V47.0766Z" fill="#E80000"/>
<path d="M35.3166 49.4985V47.0771H32.8994H32.8953V44.6517H30.4699V42.2305H28.0527V51.9198H37.7419V49.4985H35.3166Z" fill="#0919D8"/>
<path d="M30.4728 42.2298V39.8047H28.0518V42.2298H30.4687H30.4728Z" fill="#16B5F4"/>
<path d="M37.7413 47.0767H35.3203V49.4977H37.7413V47.0767Z" fill="#16B5F4"/>
<path d="M37.7422 49.498V51.919H40.1673V49.498H37.7422Z" fill="#16B5F4"/>
<path d="M35.3154 47.0765H35.3195V44.6514H32.8984V47.0765H35.3154Z" fill="#16B5F4"/>
<path d="M32.8997 42.2305H30.4746V44.6515H32.8997V42.2305Z" fill="#16B5F4"/>
<path d="M57.1231 22.8438H54.7021V25.2689H57.1231V22.8438Z" fill="#9E9E9E"/>
<path d="M59.5482 25.2695H57.123V27.6905H59.5482V25.2695Z" fill="#9E9E9E"/>
<path d="M49.8545 27.6904H52.2798V22.8437H54.7011V20.4224H52.2798V17.9971H49.8545V22.8437V27.6904Z" fill="#9E9E9E"/>
<path d="M37.741 51.9199H28.0518V54.3454H37.741V51.9199Z" fill="black"/>
<path d="M59.5488 27.6909H49.8555V30.1122H54.7021V30.1163H57.1234V37.3842H59.5488V27.6909Z" fill="black"/>
<path d="M57.1236 59.1916H42.5879V61.6171H59.5491V61.4663V59.1916V47.0771H57.1236V59.1916Z" fill="black"/>
<path d="M23.2056 20.4224H49.856V17.9971H20.7803V18.0011V61.6127V61.6169H28.0482V59.1914H23.2056V20.4224Z" fill="black"/>
<path d="M52.2812 37.3833V44.6553V44.6512L54.7028 44.6553V37.3833H52.2812Z" fill="black"/>
<path d="M42.5879 47.0771V49.4985H49.8558V47.0771H43.4969H42.5879Z" fill="black"/>
<path d="M52.2803 44.6558H49.8594V47.0768H52.2803V44.6558Z" fill="black"/>
<path d="M32.8936 37.3838H40.1656V34.9585H32.8936V37.3838Z" fill="black"/>
<path d="M42.5883 27.6909H40.167V34.9588H42.5883V27.6909Z" fill="black"/>
<path d="M52.2667 49.605V54.412H45.0537V56.8136H54.6682V49.605H52.2667Z" fill="black"/>
</svg>
