<svg width="80" height="80" viewBox="0 0 80 80" fill="none" xmlns="http://www.w3.org/2000/svg">
<g clip-path="url(#clip0_795_3146)">
<rect width="80" height="80" fill="#000008"/>
<path d="M80.4473 -0.00292969H-0.552734V80.9971H80.4473V-0.00292969Z" fill="white"/>
<path d="M40 67.9971C55.464 67.9971 68 55.461 68 39.9971C68 24.5331 55.464 11.9971 40 11.9971C24.536 11.9971 12 24.5331 12 39.9971C12 55.461 24.536 67.9971 40 67.9971Z" stroke="black" stroke-width="2.95"/>
<path d="M42.9369 33.3678C40.9398 34.7968 38.7922 35.2865 36.4983 34.8341C34.2005 34.3843 32.3752 33.1392 31.0186 31.1014L29 28.0691L31.8957 25.9971L33.9143 29.0294C34.7174 30.2357 35.7892 30.967 37.1338 31.2203C38.4744 31.4765 39.7372 31.1806 40.9143 30.3383L46.0227 26.66C47.6462 25.4909 49.8772 25.9113 51 27.598L42.9369 33.3678Z" fill="black"/>
<path d="M46.6343 42.9243C45.2048 40.9248 44.7124 38.7766 45.1597 36.4835C45.6041 34.1865 46.8431 32.3635 48.8739 31.0104L51.8955 28.9971L53.9678 31.8961L50.9465 33.9095C49.7443 34.7105 49.0167 35.7811 48.7664 37.1252C48.5132 38.4653 48.8108 39.7285 49.6534 40.907L53.3405 46.0327C54.5052 47.6519 54.0865 49.8772 52.4056 50.9971L46.6343 42.9243Z" fill="black"/>
<path d="M37.0632 47.4453C39.0603 46.1751 41.208 45.7397 43.5017 46.1421C45.7996 46.5416 47.6249 47.6486 48.9816 49.4599L51 52.1553L48.1045 53.9971L46.0857 51.3017C45.2828 50.2293 44.2108 49.5793 42.8664 49.3542C41.5258 49.1265 40.2629 49.3895 39.0857 50.1381L33.9772 53.4078C32.3536 54.447 30.1229 54.0732 29 52.5741L37.0632 47.4453Z" fill="black"/>
<path d="M32.5472 37.0697C33.8179 39.0693 34.2556 41.2176 33.8581 43.5107C33.463 45.8077 32.3617 47.6307 30.5567 48.9836L27.8708 50.9971L26.0285 48.098L28.7144 46.0845C29.783 45.2836 30.4297 44.2131 30.6522 42.8689C30.8772 41.5289 30.6127 40.2655 29.8638 39.087L26.5863 33.9614C25.5508 32.342 25.9232 30.1171 27.4173 28.9971L32.5472 37.0697Z" fill="black"/>
</g>
<defs>
<clipPath id="clip0_795_3146">
<rect width="80" height="80" fill="white"/>
</clipPath>
</defs>
</svg>
