<svg width="80" height="80" viewBox="0 0 80 80" fill="none" xmlns="http://www.w3.org/2000/svg">
<rect width="80" height="80" fill="#4CA3FF"/>
<path fill-rule="evenodd" clip-rule="evenodd" d="M50.6518 36.3478L50.651 36.3497C52.4239 38.6005 53.4834 41.4513 53.4834 44.552C53.4834 47.6988 52.3921 50.5883 50.5714 52.8543L50.4146 53.0494L50.3731 52.8015C50.3377 52.5906 50.2962 52.3777 50.2479 52.1631C49.3367 48.1094 46.3679 44.6335 41.4816 41.819C38.182 39.9237 36.2932 37.6414 35.7973 35.0484C35.4771 33.3716 35.7152 31.6875 36.1753 30.2449C36.6353 28.8028 37.3196 27.5945 37.9009 26.8671L37.9013 26.8666L39.8021 24.5133C40.1354 24.1007 40.7593 24.1007 41.0926 24.5133L50.6518 36.3478ZM53.6582 33.9967L53.6586 33.9958L40.9182 18.2229C40.675 17.9218 40.2196 17.9218 39.9763 18.2229L27.2359 33.996L27.2362 33.9968L27.1948 34.0489C24.8503 36.9945 23.4473 40.7379 23.4473 44.8128C23.4473 54.3033 31.0583 61.9971 40.4473 61.9971C49.8363 61.9971 57.4473 54.3033 57.4473 44.8128C57.4473 40.7379 56.0443 36.9946 53.6998 34.0489L53.6582 33.9967ZM30.2843 36.297L30.2848 36.2964L31.4243 34.8855L31.4588 35.146C31.4861 35.3523 31.5191 35.5597 31.5584 35.768C32.2957 39.6849 34.9297 42.951 39.3334 45.4805C43.1613 47.6864 45.39 50.2229 46.0322 53.0048C46.3001 54.1658 46.3479 55.3081 46.2318 56.3068L46.2246 56.3685L46.1694 56.3959C44.4418 57.2504 42.4996 57.7301 40.4469 57.7301C33.2472 57.7301 27.4104 51.8302 27.4104 44.552C27.4104 41.4272 28.4864 38.5559 30.2843 36.297Z" fill="white"/>
</svg>
