<svg width="80" height="80" viewBox="0 0 80 80" fill="none" xmlns="http://www.w3.org/2000/svg">
<g clip-path="url(#clip0_774_99)">
<rect width="80" height="80" fill="#000008"/>
<path d="M80 0H0V80H80V0Z" fill="black"/>
<path fill-rule="evenodd" clip-rule="evenodd" d="M63.9251 46.7533C63.954 46.7823 63.975 46.8179 63.9882 46.8602C64.0039 46.8892 64.0039 46.9248 63.9882 46.967C63.9882 47.0119 63.9816 47.0554 63.9684 47.0976C63.8948 47.2559 63.8304 47.4142 63.7752 47.5726C63.7015 47.7177 63.6292 47.8694 63.5582 48.0277C63.4872 48.186 63.4149 48.3377 63.3413 48.4829C63.2545 48.6412 63.1756 48.7929 63.1046 48.938C62.8311 49.4578 62.5366 49.9697 62.2211 50.4736C61.9186 50.9776 61.5952 51.4749 61.2507 51.9657C60.9062 52.4433 60.5473 52.9116 60.1739 53.3707C59.8005 53.8325 59.4126 54.2797 59.0103 54.7124C58.5369 55.2111 58.0399 55.7098 57.4995 56.2084C55.1289 58.3694 52.3718 60.0792 49.374 61.2467C46.3801 62.4142 43.1891 63 39.9783 63C36.7675 62.9802 33.5765 62.3707 30.5787 61.2032C27.5848 60.0356 24.8474 58.3259 22.4768 56.1412C21.9601 55.6425 21.4433 55.1478 20.9661 54.6293C20.5637 54.1966 20.1759 53.7493 19.8024 53.2876C19.429 52.8259 19.0701 52.3496 18.7256 51.8588C18.3943 51.3813 18.0708 50.8905 17.7553 50.3865C17.4555 49.8826 17.1689 49.3641 16.8954 48.8311C16.5917 48.2652 16.3116 47.6596 16.0316 47.0106C16.0184 46.9683 16.0118 46.9261 16.0118 46.8839C15.9961 46.8391 15.9961 46.8021 16.0118 46.7731C16.025 46.7309 16.046 46.6953 16.0749 46.6662C16.1039 46.624 16.1394 46.595 16.1814 46.5792C16.3392 46.5079 16.4983 46.4288 16.6587 46.3417C16.8007 46.2546 16.9506 46.1755 17.1084 46.1042C17.2662 46.0172 17.4174 45.9301 17.562 45.843C17.7198 45.7559 17.871 45.6702 18.0156 45.5858C18.5179 45.2823 19.0057 44.9644 19.479 44.6319C19.9681 44.2995 20.4428 43.9604 20.9029 43.6148C21.3763 43.2533 21.8365 42.8852 22.2835 42.5106C22.7279 42.1227 23.1592 41.7269 23.5773 41.3232C24.1571 40.781 24.7409 40.1953 25.2773 39.5897C26.4646 38.2718 27.5217 36.8668 28.4684 35.3707C29.4151 33.8786 30.2355 32.3232 30.9258 30.6768C31.6161 29.0541 32.1525 27.3681 32.5627 25.6385C32.9532 23.9288 33.2096 22.1755 33.3161 20.4024L33.3832 18.5185V18.3443C33.3832 18.3021 33.3898 18.2599 33.4029 18.2177C33.4187 18.1728 33.441 18.1359 33.47 18.1069C33.4989 18.0646 33.5344 18.0356 33.5765 18.0198C33.6185 18.0066 33.6619 18 33.7066 18H46.1198C46.1645 18 46.2079 18.0066 46.25 18.0198C46.2921 18.0356 46.3276 18.0646 46.3565 18.1069C46.3854 18.1359 46.4078 18.1728 46.4235 18.2177C46.4367 18.2599 46.4433 18.3021 46.4433 18.3443V18.5185L46.5103 20.4024C46.6168 22.1953 46.8732 23.9723 47.2834 25.7018C47.6936 27.4551 48.2538 29.1649 48.944 30.8074C49.654 32.4538 50.4745 34.033 51.4448 35.5449C52.4151 37.0369 53.5117 38.4657 54.7187 39.7876C55.2591 40.3931 55.8429 40.9551 56.4227 41.4934C56.8408 41.8997 57.2721 42.2902 57.7165 42.6649C58.1609 43.0237 58.6211 43.3839 59.0971 43.7454C59.5572 44.091 60.0306 44.4222 60.5171 44.7388C60.993 45.0712 61.4821 45.3813 61.9844 45.6689C62.5879 46.0172 63.1914 46.3615 63.8146 46.6662C63.8593 46.6794 63.8961 46.7084 63.9251 46.7533ZM26.3976 55.124V54.2375C26.4133 54.1214 26.4212 53.9987 26.4212 53.8694L26.4646 53.5251C26.4778 53.3958 26.4988 53.2731 26.5277 53.157C26.5856 52.7823 26.6724 52.4208 26.7881 52.0726C26.9038 51.7137 27.0405 51.3681 27.1983 51.0356C27.3561 50.69 27.5349 50.3588 27.7347 50.0422C27.9372 49.7388 28.1607 49.4433 28.4053 49.1557C28.5184 49.0237 28.6393 48.8931 28.7682 48.7639C28.8839 48.6346 29.0062 48.5053 29.135 48.376C29.2665 48.2467 29.3967 48.124 29.5255 48.0079C29.6544 47.8786 29.7832 47.7559 29.9121 47.6398C30.7877 46.8034 31.6279 45.9235 32.4326 45C33.2241 44.0765 33.9788 43.1174 34.6967 42.1227C35.4014 41.1412 36.0628 40.124 36.6807 39.0712C37.3119 38.0185 37.8864 36.9446 38.4045 35.8496C38.4202 35.8206 38.4281 35.7982 38.4281 35.7823V35.6319C38.4281 35.6187 38.4202 35.5976 38.4045 35.5686C38.1021 34.8615 37.8141 34.1398 37.5406 33.4037C37.2698 32.6834 37.0187 31.9472 36.7872 31.1953C36.5585 30.4617 36.3507 29.719 36.164 28.967C35.9773 28.2177 35.8117 27.4604 35.667 26.6953C35.667 26.6121 35.6236 26.5251 35.5802 26.4578C35.5171 26.4142 35.4304 26.3707 35.3436 26.3707C35.2568 26.3707 35.17 26.4142 35.1069 26.4578C35.0635 26.5251 35.0201 26.6121 35.0201 26.6953C34.6625 28.1544 34.2102 29.5897 33.6632 31.0013C33.1163 32.4024 32.4773 33.7586 31.7462 35.0699C31.0257 36.3813 30.2132 37.6438 29.3086 38.8575C28.4171 40.0528 27.4468 41.1913 26.3976 42.2731C25.8808 42.8153 25.3207 43.3575 24.7606 43.8522C24.3741 44.1979 23.9796 44.5369 23.5773 44.8694C23.1592 45.215 22.7424 45.5396 22.3269 45.843C21.9088 46.1596 21.4775 46.4697 21.0331 46.7731C20.6019 47.0633 20.1627 47.3443 19.7157 47.6161L19.6328 47.7032C19.6039 47.7322 19.5894 47.7691 19.5894 47.814C19.5737 47.8562 19.5658 47.8984 19.5658 47.9406C19.5816 47.9697 19.596 48.0066 19.6092 48.0515C19.8537 48.5132 20.1193 48.9604 20.4059 49.3931C20.6794 49.8391 20.974 50.2718 21.2895 50.6913C21.5919 51.1082 21.9088 51.5185 22.2401 51.9222C22.5846 52.3259 22.937 52.715 23.2972 53.0897C23.7469 53.5449 24.2242 54.0198 24.7843 54.4987C25.1419 54.8153 25.5153 55.1174 25.9045 55.405C25.9624 55.4499 26.0189 55.4723 26.0741 55.4723C26.132 55.4723 26.1898 55.4578 26.2477 55.4288C26.3055 55.3997 26.3489 55.3562 26.3778 55.2982C26.4068 55.2401 26.4212 55.1821 26.4212 55.124H26.3976ZM47.3899 48.8707C46.6852 48.1662 46.0028 47.4314 45.3428 46.6662C44.6827 45.9011 44.0503 45.1148 43.4455 44.3074C42.8433 43.5 42.2753 42.6781 41.7415 41.8417C41.1971 40.9894 40.6804 40.124 40.1913 39.2454C40.1624 39.2032 40.1269 39.1596 40.0848 39.1148L39.9112 39.0712L39.7377 39.1148C39.6956 39.1596 39.6601 39.2032 39.6312 39.2454C39.2578 39.9077 38.8699 40.5712 38.4676 41.2361C38.0652 41.8852 37.6406 42.5198 37.1935 43.1398C36.7649 43.7599 36.3126 44.3734 35.8366 44.9802C35.3633 45.5844 34.8755 46.1755 34.3732 46.7533C33.7895 47.4459 33.1426 48.1385 32.4957 48.7876C32.4668 48.8166 32.4457 48.8588 32.4326 48.9142C32.4168 48.9591 32.4089 49.0026 32.4089 49.0449C32.4247 49.1029 32.4391 49.1464 32.4523 49.1755C32.4812 49.2177 32.518 49.2533 32.5627 49.2823C33.1229 49.6306 33.704 49.934 34.3062 50.1926C34.8952 50.4512 35.5066 50.6675 36.1404 50.8417C36.7715 51.029 37.4105 51.1662 38.0574 51.2533C38.7042 51.3404 39.3577 51.3839 40.0177 51.3839H40.0848C40.7159 51.3839 41.3483 51.3404 41.9821 51.2533C42.6132 51.1662 43.2298 51.0356 43.832 50.8615C44.45 50.69 45.0469 50.4815 45.6228 50.2361C46.2118 49.9749 46.7798 49.686 47.3268 49.3694C47.3689 49.3404 47.4044 49.3048 47.4333 49.2625C47.4622 49.2177 47.4833 49.1741 47.4964 49.1319C47.4964 49.0739 47.4898 49.0237 47.4767 48.9815C47.4609 48.9235 47.432 48.8799 47.3899 48.8509V48.8707ZM30.0817 51.3166C29.7385 51.7916 29.4782 52.3338 29.3086 52.8958C29.135 53.4578 29.0482 54.0396 29.0482 54.6253C29.068 55.2309 29.1547 55.8166 29.3283 56.3786C29.5216 56.9169 29.7819 57.4591 30.1251 57.934C30.1408 57.9499 30.1487 57.9644 30.1487 57.9776C30.1619 57.9776 30.1763 57.9855 30.1921 58.0013C30.1921 58.0145 30.1987 58.0211 30.2118 58.0211C30.2276 58.0369 30.2421 58.0449 30.2552 58.0449C30.7733 58.2902 31.3045 58.5132 31.8488 58.7137C32.3958 58.9169 32.9427 59.1042 33.4897 59.2757C34.0498 59.434 34.6099 59.5712 35.17 59.6873C35.7301 59.8166 36.2981 59.9182 36.874 59.9921C37.1317 60.0211 37.3973 60.0501 37.6708 60.0792C37.9285 60.1082 38.1862 60.1293 38.4439 60.1425C38.7174 60.1715 38.9843 60.186 39.2446 60.186C39.5155 60.1992 39.7811 60.2058 40.0414 60.2058H40.2347C41.5127 60.1926 42.7841 60.0778 44.049 59.8615C45.3138 59.6293 46.5563 59.2968 47.7765 58.8641C48.9835 58.4314 50.1484 57.905 51.2713 57.285C52.3915 56.6649 53.4539 55.9512 54.4584 55.1438C54.5031 55.1148 54.5399 55.0792 54.5688 55.0369C54.5977 54.9789 54.6122 54.9208 54.6122 54.8628C54.6122 54.8206 54.5977 54.7704 54.5688 54.7124C54.5399 54.6702 54.5031 54.6346 54.4584 54.6055L53.2948 53.8259C52.9082 53.5515 52.5282 53.2705 52.1548 52.9829C51.7814 52.7084 51.408 52.4261 51.0346 52.1359L49.9538 51.2296C49.9249 51.2005 49.896 51.186 49.867 51.186C49.8407 51.1702 49.8052 51.1557 49.7605 51.1425C49.7316 51.1425 49.6961 51.1491 49.654 51.1623L49.5673 51.2058C49.065 51.5541 48.5404 51.8641 47.9934 52.1359C47.4622 52.4261 46.9087 52.686 46.3328 52.9156C45.7727 53.1319 45.1981 53.3272 44.6091 53.5013C44.02 53.6596 43.4244 53.7889 42.8223 53.8892C42.6487 53.9182 42.483 53.9472 42.3252 53.9763L41.8085 54.0198C41.635 54.0488 41.4693 54.0699 41.3115 54.0831C41.1406 54.0831 40.9684 54.091 40.7948 54.1069L40.0177 54.1267C39.171 54.1267 38.3374 54.062 37.517 53.9327C36.686 53.8166 35.8682 53.6359 35.0635 53.3905C34.2589 53.1478 33.4752 52.8456 32.7126 52.4842C31.95 52.1227 31.2177 51.7045 30.5156 51.2296C30.4866 51.2005 30.4498 51.186 30.4051 51.186C30.3631 51.1702 30.3197 51.1702 30.275 51.186C30.2329 51.186 30.1908 51.2005 30.1487 51.2296C30.1198 51.2427 30.0909 51.2718 30.062 51.3166H30.0817ZM52.778 50.1491C53.1804 50.4789 53.5972 50.7955 54.0284 51.0989C54.4439 51.4024 54.8673 51.7058 55.2985 52.0092C55.7298 52.2968 56.1676 52.5778 56.612 52.8522C56.641 52.8654 56.6778 52.8799 56.7225 52.8958H56.829C56.8711 52.8958 56.9066 52.8813 56.9355 52.8522C56.9644 52.8364 56.9933 52.814 57.0223 52.785C57.3536 52.4393 57.6705 52.0792 57.9729 51.7045C58.2727 51.343 58.5672 50.9683 58.8564 50.5805C59.1273 50.19 59.3929 49.7929 59.6532 49.3892C59.9109 48.9855 60.1555 48.5752 60.3869 48.1583C60.4 48.1135 60.4145 48.0765 60.4303 48.0475C60.4303 48.0053 60.4224 47.9617 60.4066 47.9169C60.4066 47.8747 60.3921 47.8391 60.3632 47.81L60.2764 47.723C59.832 47.4486 59.3942 47.1675 58.9629 46.8799C58.5185 46.5923 58.0873 46.2902 57.6692 45.9736C57.2537 45.6702 56.8369 45.3522 56.4188 45.0198C56.0164 44.6873 55.622 44.3483 55.2354 44.0026C54.6753 43.504 54.1113 42.9855 53.5945 42.4472C52.3008 41.1253 51.1174 39.7203 50.0603 38.2045C48.9835 36.6887 48.0565 35.1095 47.2361 33.4472C46.4393 31.781 45.749 30.0712 45.2323 28.2982C44.6959 26.5211 44.3054 24.7282 44.0687 22.8879L43.8951 21.0475C43.8951 21.0053 43.8807 20.9617 43.8518 20.9169C43.8386 20.8905 43.8176 20.8628 43.7886 20.8338C43.7597 20.8047 43.7242 20.7823 43.6821 20.7665C43.6374 20.7533 43.594 20.7467 43.552 20.7467H37.9469C37.9048 20.7467 37.8614 20.7533 37.8167 20.7665C37.7747 20.7955 37.7392 20.8245 37.7102 20.8536C37.6682 20.8958 37.6471 20.9393 37.6471 20.9842C37.6314 21.0264 37.6235 21.0699 37.6235 21.1148C37.6813 22.1385 37.7826 23.1544 37.9272 24.1623C38.0692 25.1728 38.248 26.1755 38.4636 27.1702C38.6793 28.1649 38.9317 29.1464 39.221 30.1148C39.5207 31.0937 39.8508 32.0594 40.211 33.0119L40.4714 33.661C40.5555 33.8773 40.641 34.0871 40.7277 34.2902C40.8145 34.5066 40.9079 34.723 41.0078 34.9393C41.0946 35.1398 41.1879 35.3483 41.2879 35.5646C41.819 36.7045 42.4015 37.8153 43.0353 38.8971C43.6664 39.9921 44.3488 41.0449 45.0824 42.0554C45.8161 43.0792 46.5918 44.0673 47.4096 45.0198C48.2432 45.9723 49.1123 46.8813 50.0169 47.7467L51.571 49.1517C51.9734 49.4974 52.3757 49.8298 52.778 50.1491Z" fill="white"/>
</g>
<defs>
<clipPath id="clip0_774_99">
<rect width="80" height="80" fill="white"/>
</clipPath>
</defs>
</svg>
