<svg width="80" height="80" viewBox="0 0 80 80" fill="none" xmlns="http://www.w3.org/2000/svg">
<g clip-path="url(#clip0_774_108)">
<rect width="80" height="80" fill="#000008"/>
<path d="M80.4473 -0.00292969H-0.552734V80.9971H80.4473V-0.00292969Z" fill="#0DAA83"/>
<path d="M33.9443 32.931V27.9908C33.9443 27.5749 34.099 27.2629 34.4598 27.0548L44.3035 21.335C45.6432 20.5551 47.2409 20.191 48.8899 20.191C55.0741 20.191 58.991 25.0275 58.991 30.175C58.991 30.5391 58.991 30.955 58.9393 31.3711L48.7352 25.3389C48.1169 24.9753 47.4982 24.9753 46.8799 25.3389L33.9443 32.931ZM56.9293 52.1711V40.3668C56.9293 39.6385 56.6201 39.1187 56.0016 38.7548L43.0661 31.1629L47.2921 28.7186C47.6529 28.511 47.9622 28.511 48.3226 28.7186L58.1663 34.4387C61.001 36.1027 62.9078 39.6385 62.9078 43.0704C62.9078 47.0224 60.5888 50.6626 56.9293 52.1705V52.1711ZM30.9038 41.771L26.6778 39.2752C26.3174 39.0674 26.1625 38.7554 26.1625 38.3391V26.8994C26.1625 21.3354 30.3885 17.1232 36.1093 17.1232C38.2738 17.1232 40.2832 17.8515 41.9845 19.1512L31.8317 25.0793C31.2138 25.4434 30.9042 25.9634 30.9042 26.6915V41.7716L30.9038 41.771ZM39.9998 47.0748L33.9443 43.643V36.3633L39.9998 32.9314L46.0552 36.3633V43.643L39.9998 47.0748ZM43.8909 62.8835C41.7262 62.8835 39.7166 62.1551 38.0157 60.8554L48.1681 54.9269C48.7864 54.5632 49.0956 54.0433 49.0956 53.3148V38.235L53.3734 40.7309C53.7342 40.9386 53.8889 41.2506 53.8889 41.6669V53.1066C53.8889 58.6706 49.6111 62.8829 43.8909 62.8829V62.8835ZM31.6768 51.2875L21.8331 45.5673C18.9984 43.9031 17.092 40.3676 17.092 36.9355C17.092 32.9314 19.4626 29.3434 23.1213 27.8355V39.6913C23.1213 40.4198 23.4309 40.9394 24.049 41.3035L36.9333 48.8431L32.7073 51.2875C32.3467 51.495 32.0372 51.495 31.6768 51.2875ZM31.1103 59.8152C25.2865 59.8152 21.0092 55.3951 21.0092 49.9351C21.0092 49.5192 21.0609 49.1033 21.1119 48.687L31.2642 54.6155C31.8825 54.9792 32.5016 54.9792 33.1195 54.6155L46.0552 47.0756V52.0154C46.0552 52.4317 45.9004 52.7437 45.5396 52.9515L35.6963 58.6716C34.3562 59.4516 32.7585 59.8152 31.1097 59.8152H31.1103ZM43.8909 66.0029C50.1268 66.0029 55.3316 61.5313 56.5175 55.603C62.2893 54.0947 66 48.6348 66 43.0711C66 39.4309 64.454 35.8952 61.671 33.3469C61.9287 32.2549 62.0832 31.1629 62.0832 30.0711C62.0832 22.6354 56.1051 17.0709 49.1991 17.0709C47.8078 17.0709 46.4679 17.2785 45.1282 17.747C42.8086 15.459 39.6135 14.0029 36.1093 14.0029C29.8734 14.0029 24.6684 18.4748 23.4827 24.4028C17.7107 25.9111 14 31.3711 14 36.9349C14 40.5751 15.546 44.1109 18.329 46.6589C18.0711 47.7511 17.9166 48.8431 17.9166 49.9349C17.9166 57.3707 23.8949 62.9351 30.8009 62.9351C32.192 62.9351 33.5321 62.7273 34.872 62.259C37.191 64.5473 40.3863 66.0029 43.8909 66.0029Z" fill="white"/>
</g>
<defs>
<clipPath id="clip0_774_108">
<rect width="80" height="80" fill="white"/>
</clipPath>
</defs>
</svg>
