<svg width="80" height="80" viewBox="0 0 80 80" fill="none" xmlns="http://www.w3.org/2000/svg">
<g clip-path="url(#clip0_774_102)">
<rect width="80" height="80" fill="#000008"/>
<path d="M80 0.00292969H0V80.0029H80V0.00292969Z" fill="#2E5CFF"/>
<path d="M59 60.8502C59 63.0611 59 64.1666 58.2684 64.7145C57.5369 65.2627 56.46 64.9639 54.3064 64.3666L19.6968 54.7675C18.3992 54.4077 17.7503 54.2277 17.3751 53.7384C17 53.2492 17 52.5831 17 51.2511V28.7548C17 27.4228 17 26.7567 17.3751 26.2675C17.7503 25.7783 18.3992 25.5983 19.6968 25.2384L54.3064 15.6392C56.46 15.0419 57.5369 14.7432 58.2684 15.2913C59 15.8393 59 16.9448 59 19.1558V60.8502ZM25.6315 51.6378L54.2883 59.5869V43.6897L25.6315 51.6378ZM21.7113 47.9502L50.3624 40.003L21.7113 32.0558V47.9502ZM25.6312 28.3681L54.2883 36.3164V20.419L25.6312 28.3681Z" fill="white"/>
</g>
<defs>
<clipPath id="clip0_774_102">
<rect width="80" height="80" fill="white"/>
</clipPath>
</defs>
</svg>
